<?xml version="1.0" encoding="UTF-8"?> <svg xmlns="http://www.w3.org/2000/svg" id="Capa_1" data-name="Capa 1" viewBox="0 0 441.98 354.92"><defs><style>.cls-1{fill:#812a73;}.cls-2{fill:#d6b253;}</style></defs><polygon class="cls-1" points="339.04 217.52 329.13 217.52 329.13 287.38 370.27 287.38 370.27 278.81 339.04 278.81 339.04 217.52"></polygon><path class="cls-1" d="M181.94,371.46l-7.12-16.12-7.11,16.12Zm3.7,8.4-2.91-6.51H166.92L164,379.86h-2.19l11.88-26.49H176l11.88,26.49Z" transform="translate(-61.65 -25.36)"></path><polygon class="cls-1" points="168.23 329.87 158.66 329.87 158.66 328.06 179.84 328.06 179.84 329.87 170.27 329.87 170.27 354.5 168.23 354.5 168.23 329.87"></polygon><path class="cls-1" d="M337,371.46l-7.12-16.12-7.11,16.12Zm3.71,8.4-2.92-6.51H322l-2.88,6.51H316.9l11.88-26.49H331l11.88,26.49Z" transform="translate(-61.65 -25.36)"></path><polygon class="cls-1" points="325.43 329.87 315.86 329.87 315.86 328.06 337.05 328.06 337.05 329.87 327.48 329.87 327.48 354.5 325.43 354.5 325.43 329.87"></polygon><path class="cls-1" d="M233.34,305.13c-15.61,0-26.06-12.73-26.06-27.75s10.25-26.85,26-26.85a32,32,0,0,1,20.29,7.66l4.88-7.36s-8.66-9.25-25.57-9.25c-20.38,0-35.7,15.51-35.7,35.9,0,20.59,14.82,36.7,35.9,36.7A37.66,37.66,0,0,0,260.3,303L255,296s-8.45,9.15-21.68,9.15" transform="translate(-61.65 -25.36)"></path><path class="cls-1" d="M322.45,305.13c-14.32,0-26-11.94-26-27.75,0-15.32,11.64-26.85,26-26.85s25.86,11.53,25.86,26.85c0,15.81-11.53,27.75-25.86,27.75m0-63.55c-20.28,0-36.1,15.61-36.1,35.8,0,20.69,15.82,36.8,36.1,36.8s36-16.11,36-36.8c0-20.19-15.71-35.8-36-35.8" transform="translate(-61.65 -25.36)"></path><polygon class="cls-1" points="409.06 278.81 409.06 256.48 434.25 256.48 434.25 248.08 409.06 248.08 409.06 225.92 440.13 225.92 440.13 217.52 399.49 217.52 399.49 287.38 441.98 287.38 441.98 278.81 409.06 278.81"></polygon><rect class="cls-1" x="93.37" y="217.52" width="9.57" height="69.86"></rect><path class="cls-1" d="M108.16,288.42c0,3.88.76,9.87.76,9.87h-.2s-3.28-6.18-5.86-10L71.63,242.87h-10v69.86h9.9V267.44c0-4-.52-10.29-.52-10.29h.2s3.28,6.26,5.87,10.14l31.33,45.44h9.81V242.87H108.16Z" transform="translate(-61.65 -25.36)"></path><path class="cls-2" d="M289.41,150.3c2-5.62,4.73-11.09,7.6-18.85,4-10.68,7.92-15.92,7.92-39.42,0-37-15.8-48.5-23.87-66.67h0C272.1,44.47,257.25,55,257.09,92c-.09,21.43,5.05,30.34,8.26,38.89,1.4,3.74,2.81,7,3.93,10-8.43-4.78-9.72-8.77-9.72-8.77-5.25,8.11,5.88,15.61,13.36,19.49,1.58.78,3.28,1.54,5.16,2.27,3.52,1.35,9.31,4.3,9.3,4.34,6.93,4,8.33,7.12,8.33,7.12s0-.06,0-.09c2.18-5.7.48-10.58-6.34-15" transform="translate(-61.65 -25.36)"></path><path class="cls-2" d="M289.59,197.91c4.72.46,10.24-4.34,8.59-6.81a4,4,0,0,1-.39.16l.23-.16c-5.33.68-8.18-6.25-9.32-10-.11-.51-1-4.26-1.3-6,8.62,4.85,10.79,9.4,10.79,9.4,4.1-5.73-1.67-12.68-11.62-18.08l-1.56-.81a72.82,72.82,0,0,0-7.35-3.2c-.91-.34-1.74-.69-2.58-1,0,0,0,0,0,.05-12.35-5.18-13.17-9.73-13.17-9.73-2.31,6-2.41,12.19,13.27,18.13a59.16,59.16,0,0,1-1.92,10.84h0c-1,3.66-3.91,11.15-9.45,10.45-1.64,2.46,3.88,7.22,8.61,6.82a32.23,32.23,0,0,0,8.62,13.24c.45-.74,6.31-6.09,8.53-13.25" transform="translate(-61.65 -25.36)"></path><path class="cls-2" d="M304.41,171.54c.79,2.92,3.1,10.23,11.16,12.71,5.3,1.63,12.89-3.82,12.63-7.73a1.67,1.67,0,0,0-.56-1.22s-3.24,2.69-6.92,2.13l-.46-.09a10.57,10.57,0,0,1-2.35-.76c-8.47-3.82-10.67-17.29-4.9-30.08s17.31-20.07,25.79-16.25a12.32,12.32,0,0,1,5.63,5.3,14.42,14.42,0,0,1,1.75,4.4c.95,4.49-.57,9-5.67,10.5,0,0,1.44,2.57,5.68,2.33a14.05,14.05,0,0,0,4-.88c7.38-2.66,13.66-27.39-6.49-35.21-15.93-6.19-31.86,6.49-38,30-1.62,6.14-3.11,17.94-1.25,24.84" transform="translate(-61.65 -25.36)"></path><path class="cls-2" d="M254,171.54c-.79,2.92-3.1,10.23-11.16,12.71-5.3,1.63-12.89-3.82-12.63-7.73a1.67,1.67,0,0,1,.56-1.22s3.24,2.69,6.92,2.13l.46-.09a10.57,10.57,0,0,0,2.35-.76c8.47-3.82,10.67-17.29,4.9-30.08S228,126.43,219.56,130.25a12.37,12.37,0,0,0-5.63,5.3,14.42,14.42,0,0,0-1.75,4.4c-1,4.49.57,9,5.67,10.5,0,0-1.44,2.57-5.68,2.33a14.05,14.05,0,0,1-4-.88c-7.38-2.66-13.66-27.39,6.49-35.21,15.93-6.19,31.86,6.49,38,30,1.62,6.14,3.11,17.94,1.25,24.84" transform="translate(-61.65 -25.36)"></path><path class="cls-1" d="M138.09,355.26v13.59h9.57c8.81,0,8.81-13.59,0-13.59Zm0,15.44v9.16H136V353.38h11.62c11.5,0,11.5,17.32,0,17.32Z" transform="translate(-61.65 -25.36)"></path><path class="cls-1" d="M211.79,358.48c-1.93-3.1-5-3.55-8-3.59s-8,1.13-8,5.37c0,3.37,3.63,4.16,8.09,5,5.11,1,10.41,1.9,10.41,7.61,0,6-6.05,7.42-10.48,7.42-4.13,0-8.82-1.71-10.86-5.75l1.82-.91c1.62,3.21,5.78,4.8,9,4.8s8.43-.91,8.43-5.6c0-4-4.35-4.84-8.7-5.67-4.84-.95-9.8-1.93-9.8-6.81-.11-5.6,5.72-7.34,10.07-7.34,3.78,0,7.07.6,9.68,4.5Z" transform="translate(-61.65 -25.36)"></path><path class="cls-1" d="M251.21,367.9h9.39c4.61,0,6.66-2.61,6.69-6.31a6.1,6.1,0,0,0-6.46-6.32h-9.62Zm19.07,12H267.6l-9.16-10h-7.23v10h-2V353.37h11.66c5.75,0,8.66,4.13,8.7,8.25,0,4.32-2.8,8.1-8.59,8.1Z" transform="translate(-61.65 -25.36)"></path><polygon class="cls-1" points="223.88 343.91 213.56 328.06 213.56 328.02 215.94 328.02 224.91 341.94 233.91 328.02 236.29 328.02 236.29 328.06 225.93 343.91 225.93 354.5 223.88 354.5 223.88 343.91"></polygon><path class="cls-1" d="M423.52,358.48c-1.93-3.1-5-3.55-8-3.59s-8,1.13-8,5.37c0,3.37,3.64,4.16,8.1,5,5.11,1,10.41,1.9,10.41,7.61,0,6-6.06,7.42-10.49,7.42-4.12,0-8.81-1.71-10.85-5.75l1.81-.91c1.63,3.21,5.79,4.8,9,4.8s8.44-.91,8.44-5.6c0-4-4.35-4.84-8.7-5.67-4.84-.95-9.8-1.93-9.8-6.81-.11-5.6,5.71-7.34,10.06-7.34,3.79,0,7.08.6,9.69,4.5Z" transform="translate(-61.65 -25.36)"></path><path class="cls-1" d="M352.12,367.9h9.39c4.61,0,6.66-2.61,6.69-6.31a6.1,6.1,0,0,0-6.47-6.32h-9.61Zm19.07,12h-2.68l-9.16-10h-7.23v10h-2V353.37h11.65c5.75,0,8.67,4.13,8.7,8.25,0,4.32-2.79,8.1-8.58,8.1Z" transform="translate(-61.65 -25.36)"></path></svg> 